# xmcd
#
# Track frame offsets:
#	150
#	14906
#	27148
#	48909
#	64316
#	79429
#	95930
#	111136
#	125194
#	134863
#	149447
#	164256
#	173957
#	187185
#	196374
#	211437
#	224812
#	243616
#	259577
#	271317
#	291556
#	306801
#
# Disc length: 4315 seconds
#
# Revision: 0
# Processed by: cddbd v1.5.2PL0 Copyright (c) Steve Scherf et al.
# Submitted via: EZCDAudioConverter 7.1.0.1
#
DISCID=7a10d916
DTITLE=Nu Urban Traxx Volume 254 US
DYEAR=2018
DGENRE=blues
TTITLE0=Lil Wayne - Uproar
TTITLE1=Juicy J ft. Travis Scott - Neighbor
TTITLE2=T.I. ft. Young Thug - The Weekend
TTITLE3=Gucci Mane x Bruno Mars x Kodak Black - Wake Up In The Sky
TTITLE4=Yung Bleu ft. Kevin Gates - Ice On My Baby [Remix]
TTITLE5=Jacquees - You
TTITLE6=City Girls - Where The Bag At
TTITLE7=Jeremih and Ty Dolla $ign - Goin' Thru Some Thangz
TTITLE8=Tyga - Dip
TTITLE9=French Montana ft. Drake - No Stylist
TTITLE10=Young Dolph ft. Key Glock - Major
TTITLE11=Kanye West ft. Lil Pump - I Love It [Super Clean]
TTITLE12=Agnez Mo ft. Chris Brown - Overdose
TTITLE13=Trippie Redd - Taking A Walk
TTITLE14=G-Eazy ft. Anthony Russo - Rewind
TTITLE15=Queen Naija - Karma
TTITLE16=H.E.R. ft. Bryson Tiller - Could've Been
TTITLE17=Q Money - Neat
TTITLE18=Swizz Beatz ft. Lil Wayne - Pistol On My Side (P.O.M.S)
TTITLE19=Anderson .Paak - Tints
TTITLE20=Buddy ft. Ty Dolla $ign - Hey Up There
TTITLE21=India.Arie - That Magic
EXTD=
EXTT0=
EXTT1=
EXTT2=
EXTT3=
EXTT4=
EXTT5=
EXTT6=
EXTT7=
EXTT8=
EXTT9=
EXTT10=
EXTT11=
EXTT12=
EXTT13=
EXTT14=
EXTT15=
EXTT16=
EXTT17=
EXTT18=
EXTT19=
EXTT20=
EXTT21=
PLAYORDER=
